<svg xmlns="http://www.w3.org/2000/svg" height="22" fill="none" viewBox="0 0 66 22" class="NPay_svg_npay__F7n9p" data-cy="npay-logo"><path fill="#181818" d="M22 11a11 11 0 1 1-22 0 11 11 0 0 1 22 0m-9.16-5.17v5.53L8.99 5.83H5.83v10.354h3.328v-5.547l3.85 5.534h3.17V5.83zm48.592-.61-3.04 6.928-3.44-6.928h-2.645l4.871 9.612-2.008 4.504h2.568L64 5.234zM50.617 15.934h-2.513v-1a4.92 4.92 0 0 1-3.309 1.218c-3.005 0-5.357-2.46-5.357-5.575C39.438 7.46 41.788 5 44.795 5a4.92 4.92 0 0 1 3.309 1.216V5.22h2.513zM48.4 10.59c0-2.02-1.41-3.553-3.279-3.553s-3.278 1.534-3.278 3.553 1.407 3.553 3.278 3.553c1.872 0 3.279-1.546 3.279-3.553m-21.39 8.746h2.622v-4.312a4.88 4.88 0 0 0 3.199 1.128c3.005 0 5.36-2.46 5.36-5.575C38.19 7.46 35.838 5 32.83 5a4.9 4.9 0 0 0-3.317 1.216V5.22H27l.008 14.116Zm5.51-12.299c1.868 0 3.278 1.534 3.278 3.553s-1.41 3.553-3.278 3.553c-1.87 0-3.279-1.533-3.279-3.553s1.394-3.553 3.279-3.553"></path></svg>