<svg xmlns="http://www.w3.org/2000/svg" width="32" height="32" fill="none" viewBox="0 0 32 32" class="SubmenuSection_svg_icon__d_6y8" data-cy="submenu_icon"><path stroke="#181818" stroke-linejoin="round" stroke-width="1.5" d="M6 5.167C6 4.522 6.471 4 7.053 4h17.894C25.53 4 26 4.522 26 5.167v21c0 .644-.471 1.166-1.053 1.166h-.485c-.391 0-.72-.271-.965-.577a1.51 1.51 0 0 0-1.181-.59c-.485 0-.918.242-1.207.623-.223.292-.532.544-.899.544s-.675-.252-.898-.544c-.29-.38-.723-.622-1.207-.622s-.917.241-1.207.622c-.222.292-.531.544-.898.544s-.676-.252-.898-.544c-.29-.38-.723-.622-1.207-.622s-.918.241-1.207.622c-.223.292-.532.544-.899.544s-.675-.252-.897-.544c-.29-.38-.723-.622-1.208-.622-.47 0-.892.227-1.182.589-.244.306-.573.577-.965.577h-.484C6.47 27.333 6 26.811 6 26.167z" clip-rule="evenodd"></path><path stroke="#181818" stroke-linecap="round" stroke-linejoin="round" stroke-width="1.5" d="m16 12-1.966 7.2h-.395L11.333 12M16 12l1.965 7.2h.396l2.306-7.2M10 15.04h12"></path></svg>