<svg xmlns="http://www.w3.org/2000/svg" width="32" height="32" fill="none" viewBox="0 0 32 32" class="SubmenuSection_svg_icon__d_6y8" data-cy="submenu_icon"><path stroke="#181818" stroke-linecap="round" stroke-linejoin="round" stroke-width="1.5" d="M22.815 5H9.18c-1.82 0-3.3 1.48-3.3 3.3v17.377c0 1.176 1.425 1.765 2.255.934l2.705-2.705a2.2 2.2 0 0 1 1.557-.644H22.82a3.3 3.3 0 0 0 3.299-3.299V8.299c0-1.82-1.48-3.3-3.3-3.3z"></path><path stroke="#181818" stroke-linecap="round" stroke-linejoin="round" stroke-width="1.5" d="m15.999 8.67 1.646 3.235 3.586.566-2.57 2.565.571 3.585L16 16.971l-3.234 1.65.57-3.585-2.568-2.565 3.586-.566z"></path></svg>