<svg xmlns="http://www.w3.org/2000/svg" viewBox="0 0 99 20"><path d="M61.8 15.6H45v2.5h16.8zM54.7 1.5h-2.6v4.1c0 1.3-.7 2.4-1.9 2.9q-1.95.9-4.8.9V12c2.3 0 4.2-.4 5.9-1.2.8-.4 1.5-.9 2.1-1.6.6.7 1.3 1.2 2.1 1.6 1.7.8 3.6 1.1 5.9 1.2V9.4c-1.9 0-3.4-.3-4.8-.9-1.1-.5-1.9-1.7-1.9-2.9v-4Zm25.9 14.2v2.5H63.8v-2.5h7v-2.4h2.8v2.4zm-13.5-5.5V8.1h12.7V5.8H66.3c-1 0-1.8.8-1.8 1.8v3.1c0 1 .8 1.8 1.8 1.8h13.5v-2.3zm12.8-8.7H64.6v2.3h15.3zm7.5-.2c-1.4 0-2.6.5-3.4 1.4-.9.9-1.3 2.3-1.3 4v6.2c0 1.7.4 3 1.3 4 .9.9 2 1.4 3.4 1.4s2.6-.5 3.4-1.4c.9-.9 1.3-2.2 1.3-4V6.7c0-1.7-.4-3.1-1.3-4s-2-1.4-3.4-1.4m2.1 11.6c0 1-.2 1.7-.6 2.2s-.9.7-1.6.7-1.2-.2-1.6-.7-.6-1.2-.6-2.2V6.7c0-1 .2-1.7.6-2.2s.9-.7 1.6-.7 1.2.2 1.6.7.6 1.2.6 2.2zm5.8-11.7v6.6h-2.5v2.6h2.5v8.4H98V1.2zM38.2 20H20V0h18.2c1 0 1.8.8 1.8 1.8v16.4c0 1-.8 1.8-1.8 1.8" style="fill:#7346f3"/><path d="M35.3 8.7h-4v-4h-2.7v4h-4v2.7h10.7zm-6.6 3v3.6h2.7v-1.8c0-1.3-1.3-1.8-2.7-1.8" style="fill:#fff"/><path d="M1.8 0H20v20H1.8c-1 0-1.8-.8-1.8-1.8V1.8C0 .8.8 0 1.8 0" style="fill:#03c75a"/><path d="M11.9 10.3 8.3 5.1h-3v9.8h3.2V9.7l3.6 5.2h3V5.1h-3.2z" style="fill:#fff;fill-rule:evenodd"/></svg>