<svg width="24" height="24" fill="none" viewBox="0 0 24 24" class="_dockBar_icon_o71KT"><path stroke="currentColor" stroke-width="1.8" d="M10.115 6.522a3.61 3.61 0 11-7.22 0 3.61 3.61 0 017.22 0zm3.843-1.691c0-1.008.817-1.825 1.825-1.825h3.382c1.008 0 1.825.817 1.825 1.825v3.382a1.825 1.825 0 01-1.825 1.825h-3.382a1.825 1.825 0 01-1.825-1.825V4.83zM3.006 15.827c0-1.007.817-1.824 1.824-1.824h3.383c1.007 0 1.824.817 1.824 1.824v3.383a1.825 1.825 0 01-1.824 1.824H4.83a1.825 1.825 0 01-1.824-1.824v-3.383zm13.28-1.088a1.34 1.34 0 012.321 0l2.173 3.763a1.34 1.34 0 01-1.16 2.01h-4.346a1.34 1.34 0 01-1.16-2.01l2.172-3.763z"></path></svg>