<svg xmlns="http://www.w3.org/2000/svg" width="24" height="24" fill="none" viewBox="0 0 24 24" class="_dockBar_active_icon_-91ee"><path fill="currentColor" d="M11.015 6.522a4.51 4.51 0 11-9.02 0 4.51 4.51 0 019.02 0z"></path><path fill="currentColor" fill-rule="evenodd" d="M13.058 4.83a2.725 2.725 0 012.725-2.724h3.382a2.725 2.725 0 012.725 2.725v3.382a2.725 2.725 0 01-2.725 2.725h-3.382a2.725 2.725 0 01-2.725-2.725V4.83zM2.106 15.827a2.725 2.725 0 012.724-2.724h3.383a2.725 2.725 0 012.724 2.724v3.383a2.725 2.725 0 01-2.724 2.724H4.83a2.725 2.725 0 01-2.724-2.724v-3.383zm13.401-1.538c.862-1.493 3.017-1.493 3.88 0l2.172 3.763c.862 1.493-.216 3.36-1.94 3.36h-4.345c-1.724 0-2.802-1.867-1.94-3.36l2.173-3.763z" clip-rule="evenodd"></path></svg>